<?xml version="1.0" encoding="UTF-8" standalone="no"?>
<!-- Created with Inkscape (http://www.inkscape.org/) -->

<svg
   xmlns:dc="http://purl.org/dc/elements/1.1/"
   xmlns:cc="http://creativecommons.org/ns#"
   xmlns:rdf="http://www.w3.org/1999/02/22-rdf-syntax-ns#"
   xmlns:svg="http://www.w3.org/2000/svg"
   xmlns="http://www.w3.org/2000/svg"
   xmlns:sodipodi="http://sodipodi.sourceforge.net/DTD/sodipodi-0.dtd"
   xmlns:inkscape="http://www.inkscape.org/namespaces/inkscape"
   width="112.37685mm"
   height="69.02063mm"
   viewBox="0 0 112.37685 69.02063"
   version="1.1"
   id="svg840"
   inkscape:version="0.92.5 (2060ec1f9f, 2020-04-08)"
   sodipodi:docname="a_logo.svg">
  <metadata
     id="metadata7">
    <rdf:RDF>
      <cc:Work
         rdf:about="">
        <dc:format>image/svg+xml</dc:format>
        <dc:type
           rdf:resource="http://purl.org/dc/dcmitype/StillImage" />
        <dc:title></dc:title>
      </cc:Work>
    </rdf:RDF>
  </metadata>
  <sodipodi:namedview
     id="namedview842"
     pagecolor="#ffffff"
     bordercolor="#666666"
     borderopacity="1.0"
     inkscape:pageshadow="2"
     inkscape:pageopacity="0.0"
     inkscape:pagecheckerboard="0"
     inkscape:document-units="mm"
     showgrid="false"
     inkscape:zoom="1.0909718"
     inkscape:cx="14.665821"
     inkscape:cy="175.07326"
     inkscape:window-width="1920"
     inkscape:window-height="1025"
     inkscape:window-x="0"
     inkscape:window-y="28"
     inkscape:window-maximized="1"
     inkscape:current-layer="layer1"
     fit-margin-top="0"
     fit-margin-left="0"
     fit-margin-right="0"
     fit-margin-bottom="0" />
  <defs
     id="defs837" />
  <g
     inkscape:label="Layer 1"
     inkscape:groupmode="layer"
     id="layer1"
     transform="translate(-43.614336,-55.419697)">
    <path
       style="color:#000000;font-style:normal;font-variant:normal;font-weight:normal;font-stretch:normal;font-size:medium;line-height:normal;font-family:sans-serif;font-variant-ligatures:normal;font-variant-position:normal;font-variant-caps:normal;font-variant-numeric:normal;font-variant-alternates:normal;font-feature-settings:normal;text-indent:0;text-align:start;text-decoration:none;text-decoration-line:none;text-decoration-style:solid;text-decoration-color:#000000;letter-spacing:normal;word-spacing:normal;text-transform:none;writing-mode:lr-tb;direction:ltr;text-orientation:mixed;dominant-baseline:auto;baseline-shift:baseline;text-anchor:start;white-space:normal;shape-padding:0;clip-rule:nonzero;display:inline;overflow:visible;visibility:visible;isolation:auto;mix-blend-mode:normal;color-interpolation:sRGB;color-interpolation-filters:linearRGB;solid-color:#000000;solid-opacity:1;fill:#4794d1;fill-opacity:1;fill-rule:nonzero;stroke:none;stroke-width:0;stroke-linecap:round;stroke-linejoin:round;stroke-miterlimit:4;stroke-dasharray:none;stroke-dashoffset:0;stroke-opacity:1;color-rendering:auto;image-rendering:auto;shape-rendering:auto;text-rendering:auto;enable-background:accumulate"
       d="m 118.02998,55.445762 c -1.50326,-0.07438 -3.23026,0.01417 -5.15692,0.217904 -3.85335,0.406997 -8.41504,1.379447 -13.022054,2.984856 -4.95062,1.725172 -7.99379,3.990067 -9.32468,6.723744 -0.922618,1.895032 -0.632144,3.863928 0.09687,5.731088 -5.793458,1.310454 -11.518649,3.111649 -16.726324,6.637254 L 45.417841,68.92091 c -1.766256,-0.546487 -2.585969,2.102896 -0.819713,2.649366 l 27.183111,8.418864 c -7.473915,11.108536 -9.546973,13.20403 -26.013918,19.59912 -1.686497,0.84776 -0.351835,3.36761 1.297013,2.44876 16.418017,-6.354339 19.272378,-9.429899 26.161538,-19.596017 1.721364,7.249972 3.900479,7.99044 7.79545,15.014503 4.024457,7.257574 5.532752,10.284214 7.833241,19.554904 0.657184,1.74834 3.278287,0.73078 2.58365,-1.00302 -1.902861,-9.46546 -5.513025,-16.286989 -8.127222,-20.115217 -2.309963,-3.382697 -6.208972,-8.678684 -7.615584,-14.692844 l 29.926743,9.647504 v 32.166017 c -0.0572,1.9033 2.82764,1.9033 2.77042,0 V 90.860664 l 46.53697,-13.675752 c 1.87599,-0.462229 1.04567,-3.283847 -0.78168,-2.65629 L 107.01601,88.377316 77.421287,78.830112 c 4.487218,-2.586978 9.441235,-4.009528 14.526597,-5.098147 3.776572,4.658903 11.708626,7.800817 20.430616,7.201044 1.911,-0.06588 1.71178,-2.960028 -0.19023,-2.763516 -7.18645,0.494194 -13.678411,-2.082921 -17.030702,-5.229563 7.600412,-1.415838 15.387062,-2.335286 22.405532,-5.080845 4.22205,-1.651629 6.77122,-3.467982 7.65068,-5.807182 0.43972,-1.1696 0.29761,-2.509185 -0.35972,-3.531343 -0.65732,-1.022159 -1.70448,-1.758199 -3.0056,-2.31733 -1.03378,-0.444256 -2.31516,-0.683004 -3.81844,-0.757468 z m -4.86639,2.974496 c 3.61976,-0.382329 6.56263,-0.112273 7.5884,0.328583 0.96397,0.41424 1.533,0.902909 1.77086,1.272806 0.23786,0.369879 0.27126,0.591007 0.0969,1.054901 -0.3488,0.927789 -2.18651,2.681029 -6.06658,4.198869 -6.91864,2.706512 -15.11014,3.538568 -23.315181,5.167317 -0.620509,-1.30036 -0.844594,-2.569235 -0.217886,-3.856455 0.848631,-1.743111 3.17919,-3.729981 7.740597,-5.319505 4.39743,-1.532378 8.78318,-2.464187 12.40294,-2.846516 z"
       id="path864"
       inkscape:connector-curvature="0"
       sodipodi:nodetypes="ccscccccccccsccccccccccccccccscscccccscsccscc"
       inkscape:export-xdpi="300"
       inkscape:export-ydpi="300" />
  </g>
</svg>
